<svg width="42" height="42" viewBox="0 0 42 42" fill="none" xmlns="http://www.w3.org/2000/svg">
<mask id="mask0_1_88" style="mask-type:luminance" maskUnits="userSpaceOnUse" x="0" y="0" width="42" height="42">
<path d="M0.973999 0.0989532H41.3959V41.0417H0.973999V0.0989532Z" fill="white"/>
</mask>
<g mask="url(#mask0_1_88)">
<mask id="mask1_1_88" style="mask-type:luminance" maskUnits="userSpaceOnUse" x="1" y="0" width="41" height="41">
<path d="M12.0521 3.13541C2.43231 8.20833 -1.20831 20.1198 3.88544 29.6927C8.97919 39.2708 20.9427 42.8958 30.5625 37.8229C40.1823 32.7552 43.8229 20.8437 38.7292 11.2656C33.6354 1.6875 21.6719 -1.9323 12.0521 3.13541Z" fill="white"/>
</mask>
<g mask="url(#mask1_1_88)">
<path d="M0.973999 41.0417V0H41.3959V41.0417H0.973999Z" fill="url(#paint0_radial_1_88)"/>
</g>
</g>
<mask id="mask2_1_88" style="mask-type:luminance" maskUnits="userSpaceOnUse" x="0" y="0" width="42" height="42">
<path d="M0.973999 0H41.3959V41.0417H0.973999V0Z" fill="white"/>
</mask>
<g mask="url(#mask2_1_88)">
<path d="M12.0522 3.13541C2.43238 8.20832 -1.20825 20.1198 3.8855 29.6927C8.97925 39.2708 20.9428 42.8958 30.5626 37.8229C40.1824 32.7552 43.823 20.8437 38.7293 11.2656C33.6355 1.6875 21.672 -1.93229 12.0522 3.13541Z" stroke="#003263" stroke-width="0.366192" stroke-linecap="round"/>
</g>
<mask id="mask3_1_88" style="mask-type:luminance" maskUnits="userSpaceOnUse" x="21" y="30" width="17" height="12">
<path d="M21.5886 30.7656H37.5886V41.0417H21.5886V30.7656Z" fill="white"/>
</mask>
<g mask="url(#mask3_1_88)">
<path d="M35.4115 34.2031C34.849 33.1562 32.0209 33.5573 29.1094 35.0885C26.198 36.6146 24.2605 38.7916 24.823 39.8333" stroke="#003263" stroke-width="0.321023" stroke-linecap="round"/>
</g>
<mask id="mask4_1_88" style="mask-type:luminance" maskUnits="userSpaceOnUse" x="17" y="26" width="24" height="16">
<path d="M17.5886 26.7656H40.2552V41.0417H17.5886V26.7656Z" fill="white"/>
</mask>
<g mask="url(#mask4_1_88)">
<path d="M37.922 30.9844C35.9792 28.651 31.5313 29.1302 27.1667 31.4635C22.724 33.8021 19.8907 37.4218 20.6199 40.1562" stroke="#003263" stroke-width="0.321023" stroke-linecap="round"/>
</g>
<mask id="mask5_1_88" style="mask-type:luminance" maskUnits="userSpaceOnUse" x="13" y="22" width="29" height="20">
<path d="M13.5886 22.7656H41.3959V41.0417H13.5886V22.7656Z" fill="white"/>
</mask>
<g mask="url(#mask5_1_88)">
<path d="M39.7813 27.1979C37.922 24.1406 31.4532 24.3021 25.1459 27.6823C18.922 30.9844 15.1251 36.1354 16.4949 39.4323" stroke="#003263" stroke-width="0.321023" stroke-linecap="round"/>
</g>
<mask id="mask6_1_88" style="mask-type:luminance" maskUnits="userSpaceOnUse" x="9" y="17" width="33" height="24">
<path d="M9.58856 17.4323H41.3959V40.099H9.58856V17.4323Z" fill="white"/>
</mask>
<g mask="url(#mask6_1_88)">
<path d="M40.8282 22.6927C38.4845 18.9896 30.5626 19.2344 22.8021 23.3385C15.0417 27.4427 10.4324 33.8021 12.2136 37.8229" stroke="#003263" stroke-width="0.321023" stroke-linecap="round"/>
</g>
<mask id="mask7_1_88" style="mask-type:luminance" maskUnits="userSpaceOnUse" x="5" y="12" width="37" height="26">
<path d="M5.58856 12.099H41.3959V37.4323H5.58856V12.099Z" fill="white"/>
</mask>
<g mask="url(#mask7_1_88)">
<path d="M40.7501 17.3021C37.4324 13.7604 28.0574 14 20.0522 18.2656C11.8907 22.5312 6.7136 29.9375 7.92715 34.9271" stroke="#003263" stroke-width="0.321023" stroke-linecap="round"/>
</g>
<mask id="mask8_1_88" style="mask-type:luminance" maskUnits="userSpaceOnUse" x="1" y="6" width="41" height="28">
<path d="M1.58856 6.76562H41.3959V33.4323H1.58856V6.76562Z" fill="white"/>
</mask>
<g mask="url(#mask8_1_88)">
<path d="M39.0521 11.9896C34.3646 8.77083 25.7136 9.17187 17.5469 13.5208C9.30211 17.8646 4.13024 24.7864 4.2917 30.5" stroke="#003263" stroke-width="0.321023" stroke-linecap="round"/>
</g>
<mask id="mask9_1_88" style="mask-type:luminance" maskUnits="userSpaceOnUse" x="0" y="2" width="39" height="27">
<path d="M0.973999 2.76562H38.9219V28.099H0.973999V2.76562Z" fill="white"/>
</mask>
<g mask="url(#mask9_1_88)">
<path d="M35.9792 7.40103C31.2917 4.26562 22.9636 4.66666 15.0417 8.84895C7.03651 13.0364 2.02609 19.875 2.10942 25.5104" stroke="#003263" stroke-width="0.321023" stroke-linecap="round"/>
</g>
<mask id="mask10_1_88" style="mask-type:luminance" maskUnits="userSpaceOnUse" x="0" y="0" width="31" height="19">
<path d="M0.973999 0H30.9219V18.7656H0.973999V0Z" fill="white"/>
</mask>
<g mask="url(#mask10_1_88)">
<path d="M1.948 16.5781C3.56258 12.2292 7.52613 7.96354 13.0209 4.98959C18.5991 2.08855 24.422 1.20834 28.948 2.33334" stroke="#003263" stroke-width="0.321023" stroke-linecap="round"/>
</g>
<path d="M13.7501 2.41146C22.5626 1.52604 34.849 30.4219 31.7761 37.0208" stroke="#003263" stroke-width="0.321023" stroke-linecap="round"/>
<mask id="mask11_1_88" style="mask-type:luminance" maskUnits="userSpaceOnUse" x="22" y="0" width="19" height="37">
<path d="M22.9219 0H40.2552V36.099H22.9219V0Z" fill="white"/>
</mask>
<g mask="url(#mask11_1_88)">
<path d="M25.3073 1.36458C41.3959 8.36978 39.9428 27.3593 35.2501 34.0416" stroke="#003263" stroke-width="0.321023" stroke-linecap="round"/>
</g>
<mask id="mask12_1_88" style="mask-type:luminance" maskUnits="userSpaceOnUse" x="14" y="0" width="24" height="39">
<path d="M14.9219 0H37.5885V38.7656H14.9219V0Z" fill="white"/>
</mask>
<g mask="url(#mask12_1_88)">
<path d="M17.7084 1.20833C33.9584 3.85937 38.0834 26.4739 33.3125 35.9739" stroke="#003263" stroke-width="0.321023" stroke-linecap="round"/>
</g>
<path d="M10.7552 4.02083C5.09899 10.7031 22.2344 37.0989 29.349 38.2239" stroke="#003263" stroke-width="0.321023" stroke-linecap="round"/>
<mask id="mask13_1_88" style="mask-type:luminance" maskUnits="userSpaceOnUse" x="2" y="4" width="29" height="38">
<path d="M2.92188 4.09895H30.9219V41.0417H2.92188V4.09895Z" fill="white"/>
</mask>
<g mask="url(#mask13_1_88)">
<path d="M7.60421 6.35416C0.0885789 21.1666 17.224 37.5833 27.8126 38.9479" stroke="#003263" stroke-width="0.321023" stroke-linecap="round"/>
</g>
<mask id="mask14_1_88" style="mask-type:luminance" maskUnits="userSpaceOnUse" x="0" y="10" width="27" height="32">
<path d="M0.973999 10.7656H26.9219V41.0417H0.973999V10.7656Z" fill="white"/>
</mask>
<g mask="url(#mask14_1_88)">
<path d="M3.07819 13.1979C-0.156185 30.4219 16.9844 39.5156 24.823 39.8333" stroke="#003263" stroke-width="0.321023" stroke-linecap="round"/>
</g>
<defs>
<radialGradient id="paint0_radial_1_88" cx="0" cy="0" r="1" gradientUnits="userSpaceOnUse" gradientTransform="translate(21.3065 20.4804) scale(19.9076 19.8187)">
<stop stop-color="#E6E8F1"/>
<stop offset="0.0078125" stop-color="#E5E7F0"/>
<stop offset="0.0195312" stop-color="#E4E7F0"/>
<stop offset="0.03125" stop-color="#E4E6F0"/>
<stop offset="0.0429688" stop-color="#E3E5EF"/>
<stop offset="0.0546875" stop-color="#E2E5EF"/>
<stop offset="0.0664062" stop-color="#E1E4EE"/>
<stop offset="0.078125" stop-color="#E0E3EE"/>
<stop offset="0.0898438" stop-color="#E0E3ED"/>
<stop offset="0.101562" stop-color="#DFE2ED"/>
<stop offset="0.113281" stop-color="#DEE1ED"/>
<stop offset="0.125" stop-color="#DDE1EC"/>
<stop offset="0.136719" stop-color="#DDE0EC"/>
<stop offset="0.148438" stop-color="#DCE0EB"/>
<stop offset="0.160156" stop-color="#DBDFEB"/>
<stop offset="0.171875" stop-color="#DADEEA"/>
<stop offset="0.183594" stop-color="#D9DEEA"/>
<stop offset="0.195312" stop-color="#D9DDEA"/>
<stop offset="0.207031" stop-color="#D8DCE9"/>
<stop offset="0.21875" stop-color="#D7DCE9"/>
<stop offset="0.230469" stop-color="#D6DBE8"/>
<stop offset="0.242188" stop-color="#D6DAE8"/>
<stop offset="0.253906" stop-color="#D5DAE7"/>
<stop offset="0.261719" stop-color="#D4D9E7"/>
<stop offset="0.269531" stop-color="#D4D9E7"/>
<stop offset="0.277344" stop-color="#D3D9E7"/>
<stop offset="0.285156" stop-color="#D3D8E6"/>
<stop offset="0.292969" stop-color="#D2D8E6"/>
<stop offset="0.300781" stop-color="#D2D7E6"/>
<stop offset="0.308594" stop-color="#D1D7E5"/>
<stop offset="0.316406" stop-color="#D1D6E5"/>
<stop offset="0.324219" stop-color="#D0D6E5"/>
<stop offset="0.332031" stop-color="#D0D6E5"/>
<stop offset="0.339844" stop-color="#CFD5E4"/>
<stop offset="0.347656" stop-color="#CFD5E4"/>
<stop offset="0.355469" stop-color="#CED4E4"/>
<stop offset="0.363281" stop-color="#CED4E3"/>
<stop offset="0.371094" stop-color="#CDD3E3"/>
<stop offset="0.378906" stop-color="#CDD3E3"/>
<stop offset="0.386719" stop-color="#CCD3E3"/>
<stop offset="0.394531" stop-color="#CCD2E2"/>
<stop offset="0.402344" stop-color="#CBD2E2"/>
<stop offset="0.410156" stop-color="#CBD1E2"/>
<stop offset="0.417969" stop-color="#CAD1E1"/>
<stop offset="0.425781" stop-color="#CAD0E1"/>
<stop offset="0.433594" stop-color="#C9D0E1"/>
<stop offset="0.441406" stop-color="#C9D0E1"/>
<stop offset="0.449219" stop-color="#C8CFE0"/>
<stop offset="0.457031" stop-color="#C8CFE0"/>
<stop offset="0.464844" stop-color="#C7CEE0"/>
<stop offset="0.472656" stop-color="#C7CEDF"/>
<stop offset="0.480469" stop-color="#C6CDDF"/>
<stop offset="0.488281" stop-color="#C5CDDF"/>
<stop offset="0.496094" stop-color="#C5CDDE"/>
<stop offset="0.503906" stop-color="#C4CCDE"/>
<stop offset="0.515625" stop-color="#C4CBDE"/>
<stop offset="0.527344" stop-color="#C3CBDD"/>
<stop offset="0.539062" stop-color="#C2CADD"/>
<stop offset="0.550781" stop-color="#C1C9DC"/>
<stop offset="0.5625" stop-color="#C0C9DC"/>
<stop offset="0.574219" stop-color="#C0C8DC"/>
<stop offset="0.585938" stop-color="#BFC7DB"/>
<stop offset="0.597656" stop-color="#BEC7DB"/>
<stop offset="0.609375" stop-color="#BDC6DA"/>
<stop offset="0.621094" stop-color="#BDC6DA"/>
<stop offset="0.632812" stop-color="#BCC5D9"/>
<stop offset="0.640625" stop-color="#BBC5D9"/>
<stop offset="0.648438" stop-color="#BBC4D9"/>
<stop offset="0.65625" stop-color="#BAC4D9"/>
<stop offset="0.664062" stop-color="#BAC3D8"/>
<stop offset="0.671875" stop-color="#B9C3D8"/>
<stop offset="0.679688" stop-color="#B9C2D8"/>
<stop offset="0.6875" stop-color="#B8C2D7"/>
<stop offset="0.695312" stop-color="#B8C2D7"/>
<stop offset="0.703125" stop-color="#B7C1D7"/>
<stop offset="0.710938" stop-color="#B7C1D7"/>
<stop offset="0.71875" stop-color="#B6C0D6"/>
<stop offset="0.726562" stop-color="#B6C0D6"/>
<stop offset="0.734375" stop-color="#B5BFD6"/>
<stop offset="0.742188" stop-color="#B5BFD5"/>
<stop offset="0.75" stop-color="#B4BFD5"/>
<stop offset="0.757812" stop-color="#B4BED5"/>
<stop offset="0.769531" stop-color="#B3BDD4"/>
<stop offset="0.78125" stop-color="#B2BDD4"/>
<stop offset="0.792969" stop-color="#B1BCD3"/>
<stop offset="0.804688" stop-color="#B0BBD3"/>
<stop offset="0.816406" stop-color="#B0BBD3"/>
<stop offset="0.824219" stop-color="#AFBAD2"/>
<stop offset="0.832031" stop-color="#AFBAD2"/>
<stop offset="0.839844" stop-color="#AEBAD2"/>
<stop offset="0.847656" stop-color="#AEB9D1"/>
<stop offset="0.855469" stop-color="#ADB9D1"/>
<stop offset="0.863281" stop-color="#ADB8D1"/>
<stop offset="0.871094" stop-color="#ACB8D1"/>
<stop offset="0.878906" stop-color="#ACB7D0"/>
<stop offset="0.890625" stop-color="#ABB7D0"/>
<stop offset="0.902344" stop-color="#AAB6CF"/>
<stop offset="0.914062" stop-color="#A9B5CF"/>
<stop offset="0.921875" stop-color="#A9B5CF"/>
<stop offset="0.929688" stop-color="#A8B5CE"/>
<stop offset="0.9375" stop-color="#A8B4CE"/>
<stop offset="0.945312" stop-color="#A7B4CE"/>
<stop offset="0.957031" stop-color="#A7B3CD"/>
<stop offset="0.964844" stop-color="#A6B3CD"/>
<stop offset="0.972656" stop-color="#A5B2CD"/>
<stop offset="0.984375" stop-color="#A5B2CC"/>
<stop offset="0.992188" stop-color="#A4B1CC"/>
<stop offset="1" stop-color="#A4B1CC"/>
</radialGradient>
</defs>
</svg>
