<svg width="512" height="512" viewBox="0 0 512 512" fill="none" xmlns="http://www.w3.org/2000/svg">
<g clip-path="url(#clip0_2_14)">
<path d="M215 62.8L219.9 38.5C220.182 37.086 220.838 35.7737 221.8 34.7C232.9 32.9 244.4 32 256 32C267.6 32 279.1 32.9 290.2 34.6C291.2 35.7 291.8 37 292.1 38.4L297 62.8C299.9 77.2 310.2 88 322.5 93.1L324 93.7C336.3 98.9 351.3 98.5 363.5 90.4L384.1 76.6C385.3 75.8 386.7 75.3 388.2 75.3C397.3 82 405.9 89.3 413.8 97.2L414.6 98C422.5 106 429.9 114.5 436.5 123.6C436.4 125 436 126.4 435.2 127.7L421.4 148.3C413.3 160.5 412.9 175.4 418.1 187.8L418.7 189.3C423.8 201.7 434.6 211.9 449 214.8L473.3 219.7C474.714 219.982 476.026 220.638 477.1 221.6C478.8 232.7 479.7 244 479.7 255.6V256C479.7 267.6 478.8 278.9 477.1 290C476 291 474.7 291.6 473.3 291.9L449.2 297C434.8 299.9 424 310.2 418.9 322.5L418.3 324C413.1 336.3 413.5 351.3 421.6 363.5L435.4 384.1C436.2 385.3 436.7 386.7 436.7 388.2C423.1 406.7 406.8 423.1 388.3 436.6C386.9 436.5 385.5 436.1 384.2 435.3L363.6 421.5C351.4 413.4 336.5 413 324.1 418.2L322.6 418.8C310.2 423.9 300 434.7 297.1 449.1L292.2 473.4C291.918 474.814 291.262 476.126 290.3 477.2C279.2 478.9 267.7 479.8 256.1 479.8C244.5 479.8 233 478.9 221.9 477.2C220.9 476.1 220.3 474.8 220 473.4L215 449.2C212.1 434.8 201.8 424 189.5 418.9L188 418.3C175.7 413.1 160.7 413.5 148.5 421.6L127.9 435.4C126.7 436.2 125.3 436.7 123.8 436.7C105.3 423.1 88.9 406.8 75.4 388.3C75.5 386.9 75.9 385.5 76.7 384.2L90.5 363.6C98.6 351.4 99 336.5 93.8 324.1L93.2 322.6C88.1 310.2 77.3 300 62.9 297.1L38.6 292.2C37.186 291.918 35.8737 291.262 34.8 290.3C32.9 279.1 32 267.6 32 256C32 244.4 32.9 232.9 34.6 221.8C35.7 220.8 37 220.2 38.4 219.9L62.8 215C77.2 212.1 88 201.8 93.1 189.5L93.7 188C98.9 175.7 98.5 160.7 90.4 148.5L76.6 127.7C75.8 126.5 75.3 125.1 75.3 123.6C82 114.5 89.3 105.9 97.3 97.9L98.1 97.1C106.1 89.2 114.7 81.8 123.8 75.1C125.2 75.2 126.6 75.6 127.9 76.4L148.5 90.2C160.7 98.3 175.6 98.7 188 93.5L189.5 92.9C201.9 87.8 212.2 77 215 62.6V62.8ZM256 0C241.2 0 226.7 1.3 212.6 3.7C210.6 4 208.7 4.7 207 5.8C197.6 11.4 190.7 20.9 188.4 32.2L183.5 56.5C183 59.1 180.9 61.9 177.2 63.4H177.1L175.4 64.1H175.3C171.6 65.6 168.2 65.1 165.9 63.7L145.5 50C135.9 43.6 124.3 41.8 113.8 44.4C111.9 44.9 110 45.7 108.4 46.9C96.6472 55.1605 85.6084 64.3929 75.4 74.5L74.6 75.3C64.4 85.6 55.2 96.6 46.9 108.3C45.7 109.9 44.9 111.8 44.4 113.7C41.8 124.3 43.6 135.8 50 145.4L63.8 166C65.3 168.2 65.8 171.7 64.2 175.4V175.5L63.5 177.2V177.3C62 181 59.2 183.1 56.6 183.6L32.3 188.5C20.9 190.8 11.5 197.7 5.9 207.1C4.9 208.8 4.2 210.7 3.8 212.7C1.3 226.7 0 241.2 0 256C0 270.8 1.3 285.3 3.7 299.4C4 301.4 4.7 303.3 5.8 305C11.4 314.4 20.9 321.3 32.2 323.6L56.5 328.5C59.1 329 61.9 331.1 63.4 334.8V334.9L64.1 336.6V336.7C65.6 340.4 65.1 343.8 63.7 346.1L50 366.5C43.6 376.1 41.8 387.7 44.4 398.2C44.9 400.1 45.7 402 46.9 403.6C63.7 427.4 84.5 448.2 108.4 465.1C110 466.3 111.9 467.1 113.8 467.6C124.4 470.2 135.9 468.4 145.5 462L166.1 448.2C168.3 446.7 171.8 446.2 175.5 447.8H175.6L177.3 448.5H177.4C181.1 450 183.2 452.8 183.7 455.4L188.6 479.7C190.9 491.1 197.8 500.5 207.2 506.1C208.9 507.1 210.8 507.8 212.8 508.2C226.9 510.6 241.4 511.9 256.2 511.9C271 511.9 285.5 510.6 299.6 508.2C301.6 507.9 303.5 507.2 305.2 506.1C314.6 500.5 321.5 491 323.8 479.7L328.7 455.4C329.2 452.8 331.3 450 335 448.5H335.1L336.8 447.8H336.9C340.6 446.3 344 446.8 346.3 448.2L366.5 462C376.1 468.4 387.7 470.2 398.2 467.6C400.1 467.1 402 466.3 403.6 465.1C427.4 448.3 448.2 427.5 465.1 403.7C466.3 402.1 467.1 400.2 467.6 398.3C470.2 387.7 468.4 376.2 462 366.6L448.2 346C446.7 343.8 446.2 340.3 447.8 336.6V336.5L448.5 334.8V334.7C450 331 452.8 328.9 455.4 328.4L479.7 323.5C491.1 321.2 500.5 314.3 506.1 304.9C507.1 303.2 507.8 301.3 508.2 299.3C510.6 285.3 511.9 270.8 511.9 256.1V255.7C511.9 241 510.6 226.6 508.2 212.5C507.9 210.5 507.2 208.6 506.1 206.9C500.5 197.5 491 190.6 479.7 188.3L455.4 183.4C452.8 182.9 450 180.8 448.5 177.1V177L447.8 175.3V175.2C446.3 171.5 446.8 168.1 448.2 165.8L462 145.5C468.4 135.9 470.2 124.3 467.6 113.8C467.1 111.9 466.3 110 465.1 108.4C456.8 96.7 447.6 85.7 437.5 75.5L436.6 74.6C426.5 64.5 415.5 55.3 403.7 47C402.1 45.8 400.2 45 398.3 44.5C387.7 41.9 376.2 43.7 366.6 50.1L345.9 63.7C343.7 65.2 340.2 65.7 336.5 64.1H336.4L334.7 63.4H334.6C330.9 61.9 328.8 59.1 328.3 56.5L323.4 32.2C321.1 20.8 314.2 11.4 304.8 5.8C303.1 4.8 301.2 4.1 299.2 3.7C284.932 1.23922 270.479 0.00139162 256 0ZM192 256C192 239.026 198.743 222.747 210.745 210.745C222.747 198.743 239.026 192 256 192C272.974 192 289.252 198.743 301.255 210.745C313.257 222.747 320 239.026 320 256C320 272.974 313.257 289.252 301.255 301.255C289.252 313.257 272.974 320 256 320C239.026 320 222.747 313.257 210.745 301.255C198.743 289.252 192 272.974 192 256ZM352 256C352 230.539 341.886 206.121 323.882 188.118C305.879 170.114 281.461 160 256 160C230.539 160 206.121 170.114 188.118 188.118C170.114 206.121 160 230.539 160 256C160 281.461 170.114 305.879 188.118 323.882C206.121 341.886 230.539 352 256 352C281.461 352 305.879 341.886 323.882 323.882C341.886 305.879 352 281.461 352 256Z" fill="#003263"/>
</g>
<defs>
<clipPath id="clip0_2_14">
<rect width="512" height="512" fill="white"/>
</clipPath>
</defs>
</svg>
