<svg xmlns="http://www.w3.org/2000/svg" viewBox="0 0 512 512" ><path fill="#fff" d="M215 62.8l4.9-24.3-15.7-3.1 15.7 3.1a8.05 8.05 0 0 1 1.9-3.8c11.1-1.8 22.6-2.7 34.2-2.7s23.1.9 34.2 2.6c1 1.1 1.6 2.4 1.9 3.8l4.9 24.4c2.9 14.4 13.2 25.2 25.5 30.3h0l1.5.6h0c12.3 5.2 27.3 4.8 39.5-3.3l20.6-13.8c1.2-.8 2.6-1.3 4.1-1.3 9.1 6.7 17.7 14 25.6 21.9l.8.8h0c7.9 8 15.3 16.5 21.9 25.6-.1 1.4-.5 2.8-1.3 4.1l-13.8 20.6c-8.1 12.2-8.5 27.1-3.3 39.5h0l.6 1.5h0c5.1 12.4 15.9 22.6 30.3 25.5l24.3 4.9a8.05 8.05 0 0 1 3.8 1.9c1.7 11.1 2.6 22.4 2.6 34v.4c0 11.6-.9 22.9-2.6 34-1.1 1-2.4 1.6-3.8 1.9l-24.1 5.1c-14.4 2.9-25.2 13.2-30.3 25.5h0l-.6 1.5h0c-5.2 12.3-4.8 27.3 3.3 39.5l13.8 20.6c.8 1.2 1.3 2.6 1.3 4.1-13.6 18.5-29.9 34.9-48.4 48.4-1.4-.1-2.8-.5-4.1-1.3l-20.6-13.8c-12.2-8.1-27.1-8.5-39.5-3.3h0l-1.5.6h0c-12.4 5.1-22.6 15.9-25.5 30.3l-4.9 24.3a8.05 8.05 0 0 1-1.9 3.8c-11.1 1.7-22.6 2.6-34.2 2.6s-23.1-.9-34.2-2.6c-1-1.1-1.6-2.4-1.9-3.8l-5-24.2c-2.9-14.4-13.2-25.2-25.5-30.3h0l-1.5-.6h0c-12.3-5.2-27.3-4.8-39.5 3.3l-20.6 13.8c-1.2.8-2.6 1.3-4.1 1.3-18.5-13.6-34.9-29.9-48.4-48.4.1-1.4.5-2.8 1.3-4.1l13.8-20.6c8.1-12.2 8.5-27.1 3.3-39.5h0l-.6-1.5h0c-5.1-12.4-15.9-22.6-30.3-25.5l-24.3-4.9a8.05 8.05 0 0 1-3.8-1.9C32.9 279.1 32 267.6 32 256s.9-23.1 2.6-34.2c1.1-1 2.4-1.6 3.8-1.9l24.4-4.9c14.4-2.9 25.2-13.2 30.3-25.5h0l.6-1.5h0c5.2-12.3 4.8-27.3-3.3-39.5l-13.8-20.8c-.8-1.2-1.3-2.6-1.3-4.1 6.7-9.1 14-17.7 22-25.7l.8-.8h0c8-7.9 16.6-15.3 25.7-22 1.4.1 2.8.5 4.1 1.3l20.6 13.8c12.2 8.1 27.1 8.5 39.5 3.3h0l1.5-.6h0c12.4-5.1 22.7-15.9 25.5-30.3zM256 0c-14.8 0-29.3 1.3-43.4 3.7-2 .3-3.9 1-5.6 2.1-9.4 5.6-16.3 15.1-18.6 26.4l-4.9 24.3c-.5 2.6-2.6 5.4-6.3 6.9h0-.1l-1.7.7h0-.1c-3.7 1.5-7.1 1-9.4-.4L145.5 50c-9.6-6.4-21.2-8.2-31.7-5.6-1.9.5-3.8 1.3-5.4 2.5a256.73 256.73 0 0 0-33 27.6h0l-.8.8h0c-10.2 10.3-19.4 21.3-27.7 33-1.2 1.6-2 3.5-2.5 5.4-2.6 10.6-.8 22.1 5.6 31.7L63.8 166c1.5 2.2 2 5.7.4 9.4v.1l-.7 1.7h0v.1c-1.5 3.7-4.3 5.8-6.9 6.3l-24.3 4.9c-11.4 2.3-20.8 9.2-26.4 18.6-1 1.7-1.7 3.6-2.1 5.6C1.3 226.7 0 241.2 0 256s1.3 29.3 3.7 43.4c.3 2 1 3.9 2.1 5.6 5.6 9.4 15.1 16.3 26.4 18.6l24.3 4.9c2.6.5 5.4 2.6 6.9 6.3v.1l.7 1.7v.1c1.5 3.7 1 7.1-.4 9.4L50 366.5c-6.4 9.6-8.2 21.2-5.6 31.7.5 1.9 1.3 3.8 2.5 5.4 16.8 23.8 37.6 44.6 61.5 61.5 1.6 1.2 3.5 2 5.4 2.5 10.6 2.6 22.1.8 31.7-5.6l20.6-13.8c2.2-1.5 5.7-2 9.4-.4h.1l1.7.7h.1c3.7 1.5 5.8 4.3 6.3 6.9l4.9 24.3c2.3 11.4 9.2 20.8 18.6 26.4 1.7 1 3.6 1.7 5.6 2.1 14.1 2.4 28.6 3.7 43.4 3.7s29.3-1.3 43.4-3.7c2-.3 3.9-1 5.6-2.1 9.4-5.6 16.3-15.1 18.6-26.4l4.9-24.3c.5-2.6 2.6-5.4 6.3-6.9h.1l1.7-.7h.1c3.7-1.5 7.1-1 9.4.4l20.2 13.8c9.6 6.4 21.2 8.2 31.7 5.6 1.9-.5 3.8-1.3 5.4-2.5 23.8-16.8 44.6-37.6 61.5-61.4 1.2-1.6 2-3.5 2.5-5.4 2.6-10.6.8-22.1-5.6-31.7L448.2 346c-1.5-2.2-2-5.7-.4-9.4v-.1l.7-1.7v-.1c1.5-3.7 4.3-5.8 6.9-6.3l24.3-4.9-3.1-15.7 3.1 15.7c11.4-2.3 20.8-9.2 26.4-18.6 1-1.7 1.7-3.6 2.1-5.6 2.4-14 3.7-28.5 3.7-43.2h0v-.4h0c0-14.7-1.3-29.1-3.7-43.2-.3-2-1-3.9-2.1-5.6-5.6-9.4-15.1-16.3-26.4-18.6l-24.3-4.9c-2.6-.5-5.4-2.6-6.9-6.3v-.1l-.7-1.7v-.1c-1.5-3.7-1-7.1.4-9.4l13.8-20.3c6.4-9.6 8.2-21.2 5.6-31.7-.5-1.9-1.3-3.8-2.5-5.4-8.3-11.7-17.5-22.7-27.6-32.9h0l-.9-.9h0c-10.1-10.1-21.1-19.3-32.9-27.6-1.6-1.2-3.5-2-5.4-2.5-10.6-2.6-22.1-.8-31.7 5.6l-20.7 13.6c-2.2 1.5-5.7 2-9.4.4h-.1l-1.7-.7h-.1c-3.7-1.5-5.8-4.3-6.3-6.9l-4.9-24.3c-2.3-11.4-9.2-20.8-18.6-26.4-1.7-1-3.6-1.7-5.6-2.1A254.33 254.33 0 0 0 256 0zm-64 256a64 64 0 1 1 128 0 64 64 0 1 1-128 0zm160 0a96 96 0 1 0-192 0 96 96 0 1 0 192 0z"/></svg>