<svg width="640" height="512" viewBox="0 0 640 512" fill="none" xmlns="http://www.w3.org/2000/svg">
<path d="M400 32V288H0V32H400ZM96 80H64V240H96V80ZM224 80V240H256V80H224ZM176 80H144V240H176V80ZM304 80V240H336V80H304ZM432 160H456H544H553.9L560.9 167L632.9 239L639.9 246V256V288V384H606.4C607.4 389.2 608 394.5 608 400C608 444.2 572.2 480 528 480C483.8 480 448 444.2 448 400C448 394.5 448.6 389.2 449.6 384H432H286.4C287.4 389.2 288 394.5 288 400C288 444.2 252.2 480 208 480C181.8 480 158.6 467.4 144 448C129.4 467.4 106.2 480 80 480C35.8 480 0 444.2 0 400V384V352V320H32H80H208H432V288V256V184V160ZM480 256H582.1L534.1 208H480V256ZM560 400C560 391.513 556.629 383.374 550.627 377.373C544.626 371.371 536.487 368 528 368C519.513 368 511.374 371.371 505.373 377.373C499.371 383.374 496 391.513 496 400C496 408.487 499.371 416.626 505.373 422.627C511.374 428.629 519.513 432 528 432C536.487 432 544.626 428.629 550.627 422.627C556.629 416.626 560 408.487 560 400ZM208 432C216.487 432 224.626 428.629 230.627 422.627C236.629 416.626 240 408.487 240 400C240 391.513 236.629 383.374 230.627 377.373C224.626 371.371 216.487 368 208 368C199.513 368 191.374 371.371 185.373 377.373C179.371 383.374 176 391.513 176 400C176 408.487 179.371 416.626 185.373 422.627C191.374 428.629 199.513 432 208 432ZM112 400C112 391.513 108.629 383.374 102.627 377.373C96.6263 371.371 88.4869 368 80 368C71.5131 368 63.3737 371.371 57.3726 377.373C51.3714 383.374 48 391.513 48 400C48 408.487 51.3714 416.626 57.3726 422.627C63.3737 428.629 71.5131 432 80 432C88.4869 432 96.6263 428.629 102.627 422.627C108.629 416.626 112 408.487 112 400Z" fill="#003263"/>
</svg>
