<svg xmlns="http://www.w3.org/2000/svg" viewBox="0 0 640 512" ><path fill="#fff" d="M400 32v256H0V32h400zM96 80H64v160h32V80zm128 0v160h32V80h-32zm-48 0h-32v160h32V80zm128 0v160h32V80h-32zm128 80h24 88 9.9l7 7 72 72 7 7v10 32 96h-33.5c1 5.2 1.6 10.5 1.6 16 0 44.2-35.8 80-80 80s-80-35.8-80-80c0-5.5.6-10.8 1.6-16H432 286.4c1 5.2 1.6 10.5 1.6 16 0 44.2-35.8 80-80 80-26.2 0-49.4-12.6-64-32-14.6 19.4-37.8 32-64 32-44.2 0-80-35.8-80-80v-16-32-32h32 48 128 224v-32-32-72-24zm48 96h102.1l-48-48H480v48zm80 144a32 32 0 1 0-64 0 32 32 0 1 0 64 0zm-352 32a32 32 0 1 0 0-64 32 32 0 1 0 0 64zm-96-32a32 32 0 1 0-64 0 32 32 0 1 0 64 0z"/></svg>