<svg width="512" height="512" viewBox="0 0 512 512" fill="none" xmlns="http://www.w3.org/2000/svg">
<g clip-path="url(#clip0_2_18)">
<path d="M480 256C480 196.592 456.4 139.616 414.392 97.6081C372.384 55.5999 315.408 32 256 32C196.592 32 139.616 55.5999 97.6081 97.6081C55.5999 139.616 32 196.592 32 256C32 315.408 55.5999 372.384 97.6081 414.392C139.616 456.4 196.592 480 256 480C315.408 480 372.384 456.4 414.392 414.392C456.4 372.384 480 315.408 480 256ZM0 256C0 188.105 26.9714 122.99 74.9807 74.9807C122.99 26.9714 188.105 0 256 0C323.895 0 389.01 26.9714 437.019 74.9807C485.029 122.99 512 188.105 512 256C512 323.895 485.029 389.01 437.019 437.019C389.01 485.029 323.895 512 256 512C188.105 512 122.99 485.029 74.9807 437.019C26.9714 389.01 0 323.895 0 256ZM208 288H288C323.3 288 352 259.3 352 224C352 188.7 323.3 160 288 160H208V288ZM288 320H208V368C208 376.8 200.8 384 192 384C183.2 384 176 376.8 176 368V304V152C176 138.7 186.7 128 200 128H288C341 128 384 171 384 224C384 277 341 320 288 320Z" fill="#003263"/>
</g>
<defs>
<clipPath id="clip0_2_18">
<rect width="512" height="512" fill="white"/>
</clipPath>
</defs>
</svg>
