<svg width="512" height="512" viewBox="0 0 512 512" fill="none" xmlns="http://www.w3.org/2000/svg">
<g clip-path="url(#clip0_2_20)">
<path d="M208 32C231.113 32 253.999 36.5524 275.352 45.3972C296.706 54.242 316.108 67.2061 332.451 83.5492C348.794 99.8923 361.758 119.294 370.603 140.648C379.448 162.001 384 184.887 384 208C384 231.113 379.448 253.999 370.603 275.352C361.758 296.706 348.794 316.108 332.451 332.451C316.108 348.794 296.706 361.758 275.352 370.603C253.999 379.448 231.113 384 208 384C184.887 384 162.001 379.448 140.648 370.603C119.294 361.758 99.8923 348.794 83.5492 332.451C67.2061 316.108 54.242 296.706 45.3972 275.352C36.5524 253.999 32 231.113 32 208C32 184.887 36.5524 162.001 45.3972 140.648C54.242 119.294 67.2061 99.8923 83.5492 83.5492C99.8923 67.2061 119.294 54.242 140.648 45.3972C162.001 36.5524 184.887 32 208 32ZM208 416C259.7 416 307 397.2 343.3 366L484.7 507.3C490.9 513.5 501.1 513.5 507.3 507.3C513.5 501.1 513.5 490.9 507.3 484.7L366 343.3C397.2 306.9 416 259.6 416 208C416 93.1 322.9 0 208 0C93.1 0 0 93.1 0 208C0 322.9 93.1 416 208 416ZM234.2 237.6C225.9 252.1 216.5 265.8 208 277.2C199.5 265.8 190.1 252.1 181.8 237.6C168.1 213.6 160 191.7 160 176C160 149.5 181.5 128 208 128C234.5 128 256 149.5 256 176C256 191.7 247.9 213.6 234.2 237.6ZM219.4 314.6C241.5 287.6 288 224.8 288 176C288 131.8 252.2 96 208 96C163.8 96 128 131.8 128 176C128 224.8 174.5 287.6 196.6 314.6C202.6 321.9 213.4 321.9 219.3 314.6H219.4ZM232 184C232 177.635 229.471 171.53 224.971 167.029C220.47 162.529 214.365 160 208 160C201.635 160 195.53 162.529 191.029 167.029C186.529 171.53 184 177.635 184 184C184 190.365 186.529 196.47 191.029 200.971C195.53 205.471 201.635 208 208 208C214.365 208 220.47 205.471 224.971 200.971C229.471 196.47 232 190.365 232 184Z" fill="#003263"/>
</g>
<defs>
<clipPath id="clip0_2_20">
<rect width="512" height="512" fill="white"/>
</clipPath>
</defs>
</svg>
