<svg xmlns="http://www.w3.org/2000/svg" viewBox="0 0 512 512" ><path fill="#fff" d="M468.9 104H456h-.5c-.7 0-1.4-.1-2.1-.1C441.3 102.5 432 92.4 432 80s9.3-22.5 21.3-23.9c.7-.1 1.4-.1 2.1-.1h.5 12.9 17.6c10.8 0 18.4-10.6 12.5-19.6a81.65 81.65 0 0 0-12.5-14.9c-4.2-3.9-8.8-7.4-13.8-10.3-1.8-1.2-3.7-2.2-5.7-3.2-10.5-5.1-22.4-8-34.9-8-29.1 0-54.5 15.5-68.5 38.7-3.3 5.4-8.9 9.3-15.3 9.3H163.8c-6.4 0-12-3.8-15.3-9.3C134.5 15.5 109.1 0 80 0 67.5 0 55.6 2.9 45.1 8c-2 1-3.9 2-5.8 3.1-5 2.9-9.6 6.4-13.8 10.3-4.7 4.4-9 9.4-12.5 14.9C7 45.4 14.7 56 25.5 56h17.6H56h.5c.7 0 1.4.1 2.1.1C70.7 57.5 80 67.6 80 80s-9.3 22.5-21.3 23.9c-.7.1-1.4.1-2.1.1h-.5-13-17.6c-10.8 0-18.5 10.6-12.6 19.6a81.65 81.65 0 0 0 12.5 14.9c4.2 3.9 8.8 7.4 13.8 10.3 1.9 1.1 3.8 2.2 5.8 3.1 10.6 5.1 22.4 8 34.9 8 29.1 0 54.5-15.5 68.5-38.7 3.3-5.4 8.9-9.3 15.3-9.3h184.5c6.4 0 12 3.8 15.3 9.3 14 23.2 39.5 38.7 68.5 38.7 12.5 0 24.4-2.9 34.9-8 2-1 3.9-2 5.8-3.1 5-2.9 9.6-6.4 13.8-10.3 4.7-4.4 9-9.4 12.5-14.9 5.9-9-1.7-19.6-12.5-19.6h-17.6zM185.8 208h140.4c10.1 0 19.2 6.4 22.6 15.9l17.1 48.1H146.1l17.2-48.1c3.4-9.6 12.5-15.9 22.6-15.9zm-96.4 79.9c-.2.5-.3.9-.5 1.4C64.2 306.7 48 335.5 48 368v32 16 32 40c0 13.3 10.7 24 24 24s24-10.7 24-24v-40h320v40c0 13.3 10.7 24 24 24s24-10.7 24-24v-40-32-16-32c0-32.5-16.2-61.3-40.9-78.7-.1-.5-.3-.9-.5-1.4L394 207.8c-10.2-28.7-37.4-47.8-67.8-47.8H185.8c-30.4 0-57.6 19.1-67.8 47.8l-28.6 80.1zM368 320c26.5 0 48 21.5 48 48v32H96v-32c0-26.5 21.5-48 48-48h224zm-208 64a24 24 0 1 0 0-48 24 24 0 1 0 0 48zm216-24a24 24 0 1 0-48 0 24 24 0 1 0 48 0z"/></svg>