<svg width="512" height="512" viewBox="0 0 512 512" fill="none" xmlns="http://www.w3.org/2000/svg">
<g clip-path="url(#clip0_2_22)">
<path d="M468.9 104H456H455.5C454.8 104 454.1 103.9 453.4 103.9C441.3 102.5 432 92.4 432 80C432 67.6 441.3 57.5 453.3 56.1C454 56 454.7 56 455.4 56H455.9H468.8H486.4C497.2 56 504.8 45.4 498.9 36.4C495.342 30.9531 491.145 25.9509 486.4 21.5C482.2 17.6 477.6 14.1 472.6 11.2C470.8 10 468.9 9 466.9 8C456.4 2.9 444.5 0 432 0C402.9 0 377.5 15.5 363.5 38.7C360.2 44.1 354.6 48 348.2 48H163.8C157.4 48 151.8 44.2 148.5 38.7C134.5 15.5 109.1 0 80 0C67.5 0 55.6 2.9 45.1 8C43.1 9 41.2 10 39.3 11.1C34.3 14 29.7 17.5 25.5 21.4C20.8 25.8 16.5 30.8 13 36.3C7.00004 45.4 14.7 56 25.5 56H43.1H56H56.5C57.2 56 57.9 56.1 58.6 56.1C70.7 57.5 80 67.6 80 80C80 92.4 70.7 102.5 58.7 103.9C58 104 57.3 104 56.6 104H56.1H43.1H25.5C14.7 104 7.00004 114.6 12.9 123.6C16.4582 129.047 20.6546 134.049 25.4 138.5C29.6 142.4 34.2 145.9 39.2 148.8C41.1 149.9 43 151 45 151.9C55.6 157 67.4 159.9 79.9 159.9C109 159.9 134.4 144.4 148.4 121.2C151.7 115.8 157.3 111.9 163.7 111.9H348.2C354.6 111.9 360.2 115.7 363.5 121.2C377.5 144.4 403 159.9 432 159.9C444.5 159.9 456.4 157 466.9 151.9C468.9 150.9 470.8 149.9 472.7 148.8C477.7 145.9 482.3 142.4 486.5 138.5C491.2 134.1 495.5 129.1 499 123.6C504.9 114.6 497.3 104 486.5 104H468.9ZM185.8 208H326.2C336.3 208 345.4 214.4 348.8 223.9L365.9 272H146.1L163.3 223.9C166.7 214.3 175.8 208 185.9 208H185.8ZM89.4 287.9C89.2 288.4 89.1 288.8 88.9 289.3C64.2 306.7 48 335.5 48 368V400V416V448V488C48 501.3 58.7 512 72 512C85.3 512 96 501.3 96 488V448H416V488C416 501.3 426.7 512 440 512C453.3 512 464 501.3 464 488V448V416V400V368C464 335.5 447.8 306.7 423.1 289.3C423 288.8 422.8 288.4 422.6 287.9L394 207.8C383.8 179.1 356.6 160 326.2 160H185.8C155.4 160 128.2 179.1 118 207.8L89.4 287.9ZM368 320C394.5 320 416 341.5 416 368V400H96V368C96 341.5 117.5 320 144 320H368ZM160 384C166.365 384 172.47 381.471 176.971 376.971C181.471 372.47 184 366.365 184 360C184 353.635 181.471 347.53 176.971 343.029C172.47 338.529 166.365 336 160 336C153.635 336 147.53 338.529 143.029 343.029C138.529 347.53 136 353.635 136 360C136 366.365 138.529 372.47 143.029 376.971C147.53 381.471 153.635 384 160 384ZM376 360C376 353.635 373.471 347.53 368.971 343.029C364.47 338.529 358.365 336 352 336C345.635 336 339.53 338.529 335.029 343.029C330.529 347.53 328 353.635 328 360C328 366.365 330.529 372.47 335.029 376.971C339.53 381.471 345.635 384 352 384C358.365 384 364.47 381.471 368.971 376.971C373.471 372.47 376 366.365 376 360Z" fill="#003263"/>
</g>
<defs>
<clipPath id="clip0_2_22">
<rect width="512" height="512" fill="white"/>
</clipPath>
</defs>
</svg>
